<?xml version="1.0" encoding="UTF-8" standalone="no"?>
<svg
   xmlns:dc="http://purl.org/dc/elements/1.1/"
   xmlns:cc="http://creativecommons.org/ns#"
   xmlns:rdf="http://www.w3.org/1999/02/22-rdf-syntax-ns#"
   xmlns:svg="http://www.w3.org/2000/svg"
   xmlns="http://www.w3.org/2000/svg"
   xmlns:sodipodi="http://sodipodi.sourceforge.net/DTD/sodipodi-0.dtd"
   xmlns:inkscape="http://www.inkscape.org/namespaces/inkscape"
   width="999.91302"
   height="1000"
   viewBox="0 0 749.93481 749.99998"
   version="1.1"
   id="svg2"
   inkscape:version="0.92.2 (5c3e80d, 2017-08-06)"
   sodipodi:docname="SmashBall.svg">
  <metadata
     id="metadata16">
    <rdf:RDF>
      <cc:Work
         rdf:about="">
        <dc:format>image/svg+xml</dc:format>
        <dc:type
           rdf:resource="http://purl.org/dc/dcmitype/StillImage" />
        <dc:title></dc:title>
      </cc:Work>
    </rdf:RDF>
  </metadata>
  <defs
     id="defs14" />
  <sodipodi:namedview
     pagecolor="#ffffff"
     bordercolor="#666666"
     borderopacity="1"
     objecttolerance="10"
     gridtolerance="10"
     guidetolerance="10"
     inkscape:pageopacity="0"
     inkscape:pageshadow="2"
     inkscape:window-width="1920"
     inkscape:window-height="1028"
     id="namedview12"
     showgrid="false"
     inkscape:zoom="0.60682618"
     inkscape:cx="867.97757"
     inkscape:cy="263.81366"
     inkscape:window-x="-8"
     inkscape:window-y="-8"
     inkscape:window-maximized="1"
     inkscape:current-layer="svg2"
     units="px" />
  <path
     d="m 310.99177,5.3130664 c 87.98985,-14.54378 180.70641,1.81797 257.06123,48.3580496 71.99168,43.63132 129.076,111.623474 158.16355,190.523454 22.17925,57.8115 27.99676,121.4405 20.36128,182.52435 -145.43774,0.72719 -290.51189,0 -435.58606,0.3636 0,-140.71101 -0.36359,-281.05843 0,-421.7694536 z"
     id="path4"
     style="opacity:1;fill:#000000;stroke:#e10d05;stroke-width:0.34086972"
     inkscape:connector-curvature="0" />
  <path
     d="M 11.390015,283.09916 C 29.933327,207.83513 73.564651,139.47939 132.46694,88.939766 c 1.09078,112.714254 0,225.428494 0.36359,338.142754 -43.267727,-0.3636 -86.535456,0.72718 -129.8031857,-0.3636 -5.0903211,-47.99446 -3.99953798,-96.7161 8.3626707,-143.61976 z"
     id="path6"
     style="opacity:1;fill:#000000;stroke:#e10d05;stroke-width:0.34086972"
     inkscape:connector-curvature="0" />
  <path
     d="m 22.297846,499.80139 c 36.723031,0 73.809656,0 110.532684,0 0,53.44837 0.3636,106.89674 0,160.70871 C 82.290916,618.33315 42.65913,562.33962 22.297846,499.80139 Z"
     id="path8"
     style="opacity:1;fill:#000000;stroke:#e10d05;stroke-width:0.34086972"
     inkscape:connector-curvature="0" />
  <path
     d="m 310.99177,499.80139 c 139.25666,0 278.5133,-0.36359 417.40634,0.36359 -32.72349,91.98938 -102.53361,170.16216 -190.52344,212.33911 -69.81012,33.81428 -150.52807,45.44938 -226.8829,31.63271 -0.36359,-81.44514 0,-162.89027 0,-244.33541 z"
     id="path10"
     style="opacity:1;fill:#000000;stroke:#e10d05;stroke-width:0.34086972"
     inkscape:connector-curvature="0" />
</svg>
